<?xml version="1.0" encoding="utf-8"?>
<svg version="1.1" xmlns:xlink="http://www.w3.org/1999/xlink" width="12px" height="12px" viewBox="36 406  12 12" xmlns="http://www.w3.org/2000/svg">
  <path d="M 42 406  C 45.36 406  48 408.64  48 412  C 48 415.36  45.36 418  42 418  C 38.64 418  36 415.36  36 412  C 36 408.64  38.64 406  42 406  Z " fill-rule="nonzero" fill="#ffffff" stroke="none" />
  <path d="M 42 406.5  C 45.08 406.5  47.5 408.92  47.5 412  C 47.5 415.08  45.08 417.5  42 417.5  C 38.92 417.5  36.5 415.08  36.5 412  C 36.5 408.92  38.92 406.5  42 406.5  Z " stroke-width="1" stroke="#797979" fill="none" />
  <path d="M 42 415  C 40.32 415  39 413.68  39 412  C 39 410.32  40.32 409  42 409  C 43.68 409  45 410.32  45 412  C 45 413.68  43.68 415  42 415  " fill-rule="nonzero" fill="#797979" stroke="none" />
</svg>