<?xml version="1.0" encoding="utf-8"?>
<svg version="1.1" xmlns:xlink="http://www.w3.org/1999/xlink" width="12px" height="12px" viewBox="103 342  12 12" xmlns="http://www.w3.org/2000/svg">
  <path d="M 109 342  C 112.36 342  115 344.64  115 348  C 115 351.36  112.36 354  109 354  C 105.64 354  103 351.36  103 348  C 103 344.64  105.64 342  109 342  Z " fill-rule="nonzero" fill="#f0f0f0" stroke="none" />
  <path d="M 109 342.5  C 112.08 342.5  114.5 344.92  114.5 348  C 114.5 351.08  112.08 353.5  109 353.5  C 105.92 353.5  103.5 351.08  103.5 348  C 103.5 344.92  105.92 342.5  109 342.5  Z " stroke-width="1" stroke="#797979" fill="none" />
  <path d="M 109 351  C 107.32 351  106 349.68  106 348  C 106 346.32  107.32 345  109 345  C 110.68 345  112 346.32  112 348  C 112 349.68  110.68 351  109 351  " fill-rule="nonzero" fill="#797979" stroke="none" />
</svg>