<?xml version="1.0" encoding="utf-8"?>
<svg version="1.1" xmlns:xlink="http://www.w3.org/1999/xlink" width="12px" height="12px" viewBox="103 406  12 12" xmlns="http://www.w3.org/2000/svg">
  <path d="M 109 406  C 112.36 406  115 408.64  115 412  C 115 415.36  112.36 418  109 418  C 105.64 418  103 415.36  103 412  C 103 408.64  105.64 406  109 406  Z " fill-rule="nonzero" fill="#ffffff" stroke="none" />
  <path d="M 109 406.5  C 112.08 406.5  114.5 408.92  114.5 412  C 114.5 415.08  112.08 417.5  109 417.5  C 105.92 417.5  103.5 415.08  103.5 412  C 103.5 408.92  105.92 406.5  109 406.5  Z " stroke-width="1" stroke="#797979" fill="none" />
  <path d="M 109 415  C 107.32 415  106 413.68  106 412  C 106 410.32  107.32 409  109 409  C 110.68 409  112 410.32  112 412  C 112 413.68  110.68 415  109 415  " fill-rule="nonzero" fill="#797979" stroke="none" />
</svg>