<?xml version="1.0" encoding="utf-8"?>
<svg version="1.1" xmlns:xlink="http://www.w3.org/1999/xlink" width="12px" height="12px" viewBox="103 3064  12 12" xmlns="http://www.w3.org/2000/svg">
  <path d="M 109 3064  C 112.36 3064  115 3066.64  115 3070  C 115 3073.36  112.36 3076  109 3076  C 105.64 3076  103 3073.36  103 3070  C 103 3066.64  105.64 3064  109 3064  Z " fill-rule="nonzero" fill="#f0f0f0" stroke="none" />
  <path d="M 109 3064.5  C 112.08 3064.5  114.5 3066.92  114.5 3070  C 114.5 3073.08  112.08 3075.5  109 3075.5  C 105.92 3075.5  103.5 3073.08  103.5 3070  C 103.5 3066.92  105.92 3064.5  109 3064.5  Z " stroke-width="1" stroke="#797979" fill="none" />
  <path d="M 109 3073  C 107.32 3073  106 3071.68  106 3070  C 106 3068.32  107.32 3067  109 3067  C 110.68 3067  112 3068.32  112 3070  C 112 3071.68  110.68 3073  109 3073  " fill-rule="nonzero" fill="#797979" stroke="none" />
</svg>