<?xml version="1.0" encoding="utf-8"?>
<svg version="1.1" xmlns:xlink="http://www.w3.org/1999/xlink" width="12px" height="12px" viewBox="36 3148  12 12" xmlns="http://www.w3.org/2000/svg">
  <path d="M 42 3148  C 45.36 3148  48 3150.64  48 3154  C 48 3157.36  45.36 3160  42 3160  C 38.64 3160  36 3157.36  36 3154  C 36 3150.64  38.64 3148  42 3148  Z " fill-rule="nonzero" fill="#f0f0f0" stroke="none" />
  <path d="M 42 3148.5  C 45.08 3148.5  47.5 3150.92  47.5 3154  C 47.5 3157.08  45.08 3159.5  42 3159.5  C 38.92 3159.5  36.5 3157.08  36.5 3154  C 36.5 3150.92  38.92 3148.5  42 3148.5  Z " stroke-width="1" stroke="#797979" fill="none" />
  <path d="M 42 3157  C 40.32 3157  39 3155.68  39 3154  C 39 3152.32  40.32 3151  42 3151  C 43.68 3151  45 3152.32  45 3154  C 45 3155.68  43.68 3157  42 3157  " fill-rule="nonzero" fill="#797979" stroke="none" />
</svg>