<?xml version="1.0" encoding="utf-8"?>
<svg version="1.1" xmlns:xlink="http://www.w3.org/1999/xlink" width="12px" height="12px" viewBox="36 3119  12 12" xmlns="http://www.w3.org/2000/svg">
  <path d="M 42 3119  C 45.36 3119  48 3121.64  48 3125  C 48 3128.36  45.36 3131  42 3131  C 38.64 3131  36 3128.36  36 3125  C 36 3121.64  38.64 3119  42 3119  Z " fill-rule="nonzero" fill="#f0f0f0" stroke="none" />
  <path d="M 42 3119.5  C 45.08 3119.5  47.5 3121.92  47.5 3125  C 47.5 3128.08  45.08 3130.5  42 3130.5  C 38.92 3130.5  36.5 3128.08  36.5 3125  C 36.5 3121.92  38.92 3119.5  42 3119.5  Z " stroke-width="1" stroke="#797979" fill="none" />
  <path d="M 42 3128  C 40.32 3128  39 3126.68  39 3125  C 39 3123.32  40.32 3122  42 3122  C 43.68 3122  45 3123.32  45 3125  C 45 3126.68  43.68 3128  42 3128  " fill-rule="nonzero" fill="#797979" stroke="none" />
</svg>