<?xml version="1.0" encoding="utf-8"?>
<svg version="1.1" xmlns:xlink="http://www.w3.org/1999/xlink" width="12px" height="12px" viewBox="36 794  12 12" xmlns="http://www.w3.org/2000/svg">
  <path d="M 42 794  C 45.36 794  48 796.64  48 800  C 48 803.36  45.36 806  42 806  C 38.64 806  36 803.36  36 800  C 36 796.64  38.64 794  42 794  Z " fill-rule="nonzero" fill="#ffffff" stroke="none" />
  <path d="M 42 794.5  C 45.08 794.5  47.5 796.92  47.5 800  C 47.5 803.08  45.08 805.5  42 805.5  C 38.92 805.5  36.5 803.08  36.5 800  C 36.5 796.92  38.92 794.5  42 794.5  Z " stroke-width="1" stroke="#797979" fill="none" />
  <path d="M 42 803  C 40.32 803  39 801.68  39 800  C 39 798.32  40.32 797  42 797  C 43.68 797  45 798.32  45 800  C 45 801.68  43.68 803  42 803  " fill-rule="nonzero" fill="#797979" stroke="none" />
</svg>