<?xml version="1.0" encoding="utf-8"?>
<svg version="1.1" xmlns:xlink="http://www.w3.org/1999/xlink" width="12px" height="12px" viewBox="103 986  12 12" xmlns="http://www.w3.org/2000/svg">
  <path d="M 109 986  C 112.36 986  115 988.64  115 992  C 115 995.36  112.36 998  109 998  C 105.64 998  103 995.36  103 992  C 103 988.64  105.64 986  109 986  Z " fill-rule="nonzero" fill="#f0f0f0" stroke="none" />
  <path d="M 109 986.5  C 112.08 986.5  114.5 988.92  114.5 992  C 114.5 995.08  112.08 997.5  109 997.5  C 105.92 997.5  103.5 995.08  103.5 992  C 103.5 988.92  105.92 986.5  109 986.5  Z " stroke-width="1" stroke="#797979" fill="none" />
  <path d="M 109 995  C 107.32 995  106 993.68  106 992  C 106 990.32  107.32 989  109 989  C 110.68 989  112 990.32  112 992  C 112 993.68  110.68 995  109 995  " fill-rule="nonzero" fill="#797979" stroke="none" />
</svg>