<?xml version="1.0" encoding="utf-8"?>
<svg version="1.1" xmlns:xlink="http://www.w3.org/1999/xlink" width="12px" height="12px" viewBox="36 1401  12 12" xmlns="http://www.w3.org/2000/svg">
  <path d="M 42 1401  C 45.36 1401  48 1403.64  48 1407  C 48 1410.36  45.36 1413  42 1413  C 38.64 1413  36 1410.36  36 1407  C 36 1403.64  38.64 1401  42 1401  Z " fill-rule="nonzero" fill="#f0f0f0" stroke="none" />
  <path d="M 42 1401.5  C 45.08 1401.5  47.5 1403.92  47.5 1407  C 47.5 1410.08  45.08 1412.5  42 1412.5  C 38.92 1412.5  36.5 1410.08  36.5 1407  C 36.5 1403.92  38.92 1401.5  42 1401.5  Z " stroke-width="1" stroke="#797979" fill="none" />
  <path d="M 42 1410  C 40.32 1410  39 1408.68  39 1407  C 39 1405.32  40.32 1404  42 1404  C 43.68 1404  45 1405.32  45 1407  C 45 1408.68  43.68 1410  42 1410  " fill-rule="nonzero" fill="#797979" stroke="none" />
</svg>