<?xml version="1.0" encoding="utf-8"?>
<svg version="1.1" xmlns:xlink="http://www.w3.org/1999/xlink" width="12px" height="12px" viewBox="36 1310  12 12" xmlns="http://www.w3.org/2000/svg">
  <path d="M 42 1310  C 45.36 1310  48 1312.64  48 1316  C 48 1319.36  45.36 1322  42 1322  C 38.64 1322  36 1319.36  36 1316  C 36 1312.64  38.64 1310  42 1310  Z " fill-rule="nonzero" fill="#f0f0f0" stroke="none" />
  <path d="M 42 1310.5  C 45.08 1310.5  47.5 1312.92  47.5 1316  C 47.5 1319.08  45.08 1321.5  42 1321.5  C 38.92 1321.5  36.5 1319.08  36.5 1316  C 36.5 1312.92  38.92 1310.5  42 1310.5  Z " stroke-width="1" stroke="#797979" fill="none" />
  <path d="M 42 1319  C 40.32 1319  39 1317.68  39 1316  C 39 1314.32  40.32 1313  42 1313  C 43.68 1313  45 1314.32  45 1316  C 45 1317.68  43.68 1319  42 1319  " fill-rule="nonzero" fill="#797979" stroke="none" />
</svg>