<?xml version="1.0" encoding="utf-8"?>
<svg version="1.1" xmlns:xlink="http://www.w3.org/1999/xlink" width="12px" height="12px" viewBox="103 1401  12 12" xmlns="http://www.w3.org/2000/svg">
  <path d="M 109 1401  C 112.36 1401  115 1403.64  115 1407  C 115 1410.36  112.36 1413  109 1413  C 105.64 1413  103 1410.36  103 1407  C 103 1403.64  105.64 1401  109 1401  Z " fill-rule="nonzero" fill="#f0f0f0" stroke="none" />
  <path d="M 109 1401.5  C 112.08 1401.5  114.5 1403.92  114.5 1407  C 114.5 1410.08  112.08 1412.5  109 1412.5  C 105.92 1412.5  103.5 1410.08  103.5 1407  C 103.5 1403.92  105.92 1401.5  109 1401.5  Z " stroke-width="1" stroke="#797979" fill="none" />
  <path d="M 109 1410  C 107.32 1410  106 1408.68  106 1407  C 106 1405.32  107.32 1404  109 1404  C 110.68 1404  112 1405.32  112 1407  C 112 1408.68  110.68 1410  109 1410  " fill-rule="nonzero" fill="#797979" stroke="none" />
</svg>