<?xml version="1.0" encoding="utf-8"?>
<svg version="1.1" xmlns:xlink="http://www.w3.org/1999/xlink" width="12px" height="12px" viewBox="36 1466  12 12" xmlns="http://www.w3.org/2000/svg">
  <path d="M 42 1466  C 45.36 1466  48 1468.64  48 1472  C 48 1475.36  45.36 1478  42 1478  C 38.64 1478  36 1475.36  36 1472  C 36 1468.64  38.64 1466  42 1466  Z " fill-rule="nonzero" fill="#ffffff" stroke="none" />
  <path d="M 42 1466.5  C 45.08 1466.5  47.5 1468.92  47.5 1472  C 47.5 1475.08  45.08 1477.5  42 1477.5  C 38.92 1477.5  36.5 1475.08  36.5 1472  C 36.5 1468.92  38.92 1466.5  42 1466.5  Z " stroke-width="1" stroke="#797979" fill="none" />
  <path d="M 42 1475  C 40.32 1475  39 1473.68  39 1472  C 39 1470.32  40.32 1469  42 1469  C 43.68 1469  45 1470.32  45 1472  C 45 1473.68  43.68 1475  42 1475  " fill-rule="nonzero" fill="#797979" stroke="none" />
</svg>