<?xml version="1.0" encoding="utf-8"?>
<svg version="1.1" xmlns:xlink="http://www.w3.org/1999/xlink" width="12px" height="12px" viewBox="36 2192  12 12" xmlns="http://www.w3.org/2000/svg">
  <path d="M 42 2192  C 45.36 2192  48 2194.64  48 2198  C 48 2201.36  45.36 2204  42 2204  C 38.64 2204  36 2201.36  36 2198  C 36 2194.64  38.64 2192  42 2192  Z " fill-rule="nonzero" fill="#f0f0f0" stroke="none" />
  <path d="M 42 2192.5  C 45.08 2192.5  47.5 2194.92  47.5 2198  C 47.5 2201.08  45.08 2203.5  42 2203.5  C 38.92 2203.5  36.5 2201.08  36.5 2198  C 36.5 2194.92  38.92 2192.5  42 2192.5  Z " stroke-width="1" stroke="#797979" fill="none" />
  <path d="M 42 2201  C 40.32 2201  39 2199.68  39 2198  C 39 2196.32  40.32 2195  42 2195  C 43.68 2195  45 2196.32  45 2198  C 45 2199.68  43.68 2201  42 2201  " fill-rule="nonzero" fill="#797979" stroke="none" />
</svg>