<?xml version="1.0" encoding="utf-8"?>
<svg version="1.1" xmlns:xlink="http://www.w3.org/1999/xlink" width="12px" height="12px" viewBox="120 411  12 12" xmlns="http://www.w3.org/2000/svg">
  <path d="M 126 411  C 129.36 411  132 413.64  132 417  C 132 420.36  129.36 423  126 423  C 122.64 423  120 420.36  120 417  C 120 413.64  122.64 411  126 411  Z " fill-rule="nonzero" fill="#f0f0f0" stroke="none" />
  <path d="M 126 411.5  C 129.08 411.5  131.5 413.92  131.5 417  C 131.5 420.08  129.08 422.5  126 422.5  C 122.92 422.5  120.5 420.08  120.5 417  C 120.5 413.92  122.92 411.5  126 411.5  Z " stroke-width="1" stroke="#797979" fill="none" />
  <path d="M 126 420  C 124.32 420  123 418.68  123 417  C 123 415.32  124.32 414  126 414  C 127.68 414  129 415.32  129 417  C 129 418.68  127.68 420  126 420  " fill-rule="nonzero" fill="#797979" stroke="none" />
</svg>