<?xml version="1.0" encoding="utf-8"?>
<svg version="1.1" xmlns:xlink="http://www.w3.org/1999/xlink" width="12px" height="12px" viewBox="53 1471  12 12" xmlns="http://www.w3.org/2000/svg">
  <path d="M 59 1471  C 62.36 1471  65 1473.64  65 1477  C 65 1480.36  62.36 1483  59 1483  C 55.64 1483  53 1480.36  53 1477  C 53 1473.64  55.64 1471  59 1471  Z " fill-rule="nonzero" fill="#f0f0f0" stroke="none" />
  <path d="M 59 1471.5  C 62.08 1471.5  64.5 1473.92  64.5 1477  C 64.5 1480.08  62.08 1482.5  59 1482.5  C 55.92 1482.5  53.5 1480.08  53.5 1477  C 53.5 1473.92  55.92 1471.5  59 1471.5  Z " stroke-width="1" stroke="#797979" fill="none" />
  <path d="M 59 1480  C 57.32 1480  56 1478.68  56 1477  C 56 1475.32  57.32 1474  59 1474  C 60.68 1474  62 1475.32  62 1477  C 62 1478.68  60.68 1480  59 1480  " fill-rule="nonzero" fill="#797979" stroke="none" />
</svg>