<?xml version="1.0" encoding="utf-8"?>
<svg version="1.1" xmlns:xlink="http://www.w3.org/1999/xlink" width="12px" height="12px" viewBox="53 411  12 12" xmlns="http://www.w3.org/2000/svg">
  <path d="M 59 411  C 62.36 411  65 413.64  65 417  C 65 420.36  62.36 423  59 423  C 55.64 423  53 420.36  53 417  C 53 413.64  55.64 411  59 411  Z " fill-rule="nonzero" fill="#f0f0f0" stroke="none" />
  <path d="M 59 411.5  C 62.08 411.5  64.5 413.92  64.5 417  C 64.5 420.08  62.08 422.5  59 422.5  C 55.92 422.5  53.5 420.08  53.5 417  C 53.5 413.92  55.92 411.5  59 411.5  Z " stroke-width="1" stroke="#797979" fill="none" />
  <path d="M 59 420  C 57.32 420  56 418.68  56 417  C 56 415.32  57.32 414  59 414  C 60.68 414  62 415.32  62 417  C 62 418.68  60.68 420  59 420  " fill-rule="nonzero" fill="#797979" stroke="none" />
</svg>