<?xml version="1.0" encoding="utf-8"?>
<svg version="1.1" xmlns:xlink="http://www.w3.org/1999/xlink" width="12px" height="12px" viewBox="120 347  12 12" xmlns="http://www.w3.org/2000/svg">
  <path d="M 126 347  C 129.36 347  132 349.64  132 353  C 132 356.36  129.36 359  126 359  C 122.64 359  120 356.36  120 353  C 120 349.64  122.64 347  126 347  Z " fill-rule="nonzero" fill="#ffffff" stroke="none" />
  <path d="M 126 347.5  C 129.08 347.5  131.5 349.92  131.5 353  C 131.5 356.08  129.08 358.5  126 358.5  C 122.92 358.5  120.5 356.08  120.5 353  C 120.5 349.92  122.92 347.5  126 347.5  Z " stroke-width="1" stroke="#797979" fill="none" />
  <path d="M 126 356  C 124.32 356  123 354.68  123 353  C 123 351.32  124.32 350  126 350  C 127.68 350  129 351.32  129 353  C 129 354.68  127.68 356  126 356  " fill-rule="nonzero" fill="#797979" stroke="none" />
</svg>