<?xml version="1.0" encoding="utf-8"?>
<svg version="1.1" xmlns:xlink="http://www.w3.org/1999/xlink" width="12px" height="12px" viewBox="53 347  12 12" xmlns="http://www.w3.org/2000/svg">
  <path d="M 59 347  C 62.36 347  65 349.64  65 353  C 65 356.36  62.36 359  59 359  C 55.64 359  53 356.36  53 353  C 53 349.64  55.64 347  59 347  Z " fill-rule="nonzero" fill="#f0f0f0" stroke="none" />
  <path d="M 59 347.5  C 62.08 347.5  64.5 349.92  64.5 353  C 64.5 356.08  62.08 358.5  59 358.5  C 55.92 358.5  53.5 356.08  53.5 353  C 53.5 349.92  55.92 347.5  59 347.5  Z " stroke-width="1" stroke="#797979" fill="none" />
  <path d="M 59 356  C 57.32 356  56 354.68  56 353  C 56 351.32  57.32 350  59 350  C 60.68 350  62 351.32  62 353  C 62 354.68  60.68 356  59 356  " fill-rule="nonzero" fill="#797979" stroke="none" />
</svg>