<?xml version="1.0" encoding="utf-8"?>
<svg version="1.1" xmlns:xlink="http://www.w3.org/1999/xlink" width="12px" height="12px" viewBox="53 828  12 12" xmlns="http://www.w3.org/2000/svg">
  <path d="M 59 828  C 62.36 828  65 830.64  65 834  C 65 837.36  62.36 840  59 840  C 55.64 840  53 837.36  53 834  C 53 830.64  55.64 828  59 828  Z " fill-rule="nonzero" fill="#ffffff" stroke="none" />
  <path d="M 59 828.5  C 62.08 828.5  64.5 830.92  64.5 834  C 64.5 837.08  62.08 839.5  59 839.5  C 55.92 839.5  53.5 837.08  53.5 834  C 53.5 830.92  55.92 828.5  59 828.5  Z " stroke-width="1" stroke="#797979" fill="none" />
  <path d="M 59 837  C 57.32 837  56 835.68  56 834  C 56 832.32  57.32 831  59 831  C 60.68 831  62 832.32  62 834  C 62 835.68  60.68 837  59 837  " fill-rule="nonzero" fill="#797979" stroke="none" />
</svg>