<?xml version="1.0" encoding="utf-8"?>
<svg version="1.1" xmlns:xlink="http://www.w3.org/1999/xlink" width="12px" height="12px" viewBox="53 991  12 12" xmlns="http://www.w3.org/2000/svg">
  <path d="M 59 991  C 62.36 991  65 993.64  65 997  C 65 1000.36  62.36 1003  59 1003  C 55.64 1003  53 1000.36  53 997  C 53 993.64  55.64 991  59 991  Z " fill-rule="nonzero" fill="#ffffff" stroke="none" />
  <path d="M 59 991.5  C 62.08 991.5  64.5 993.92  64.5 997  C 64.5 1000.08  62.08 1002.5  59 1002.5  C 55.92 1002.5  53.5 1000.08  53.5 997  C 53.5 993.92  55.92 991.5  59 991.5  Z " stroke-width="1" stroke="#797979" fill="none" />
  <path d="M 59 1000  C 57.32 1000  56 998.68  56 997  C 56 995.32  57.32 994  59 994  C 60.68 994  62 995.32  62 997  C 62 998.68  60.68 1000  59 1000  " fill-rule="nonzero" fill="#797979" stroke="none" />
</svg>