<?xml version="1.0" encoding="utf-8"?>
<svg version="1.1" xmlns:xlink="http://www.w3.org/1999/xlink" width="12px" height="12px" viewBox="53 1286  12 12" xmlns="http://www.w3.org/2000/svg">
  <path d="M 59 1286  C 62.36 1286  65 1288.64  65 1292  C 65 1295.36  62.36 1298  59 1298  C 55.64 1298  53 1295.36  53 1292  C 53 1288.64  55.64 1286  59 1286  Z " fill-rule="nonzero" fill="#ffffff" stroke="none" />
  <path d="M 59 1286.5  C 62.08 1286.5  64.5 1288.92  64.5 1292  C 64.5 1295.08  62.08 1297.5  59 1297.5  C 55.92 1297.5  53.5 1295.08  53.5 1292  C 53.5 1288.92  55.92 1286.5  59 1286.5  Z " stroke-width="1" stroke="#797979" fill="none" />
  <path d="M 59 1295  C 57.32 1295  56 1293.68  56 1292  C 56 1290.32  57.32 1289  59 1289  C 60.68 1289  62 1290.32  62 1292  C 62 1293.68  60.68 1295  59 1295  " fill-rule="nonzero" fill="#797979" stroke="none" />
</svg>