<?xml version="1.0" encoding="utf-8"?>
<svg version="1.1" xmlns:xlink="http://www.w3.org/1999/xlink" width="12px" height="12px" viewBox="120 1406  12 12" xmlns="http://www.w3.org/2000/svg">
  <path d="M 126 1406  C 129.36 1406  132 1408.64  132 1412  C 132 1415.36  129.36 1418  126 1418  C 122.64 1418  120 1415.36  120 1412  C 120 1408.64  122.64 1406  126 1406  Z " fill-rule="nonzero" fill="#ffffff" stroke="none" />
  <path d="M 126 1406.5  C 129.08 1406.5  131.5 1408.92  131.5 1412  C 131.5 1415.08  129.08 1417.5  126 1417.5  C 122.92 1417.5  120.5 1415.08  120.5 1412  C 120.5 1408.92  122.92 1406.5  126 1406.5  Z " stroke-width="1" stroke="#797979" fill="none" />
  <path d="M 126 1415  C 124.32 1415  123 1413.68  123 1412  C 123 1410.32  124.32 1409  126 1409  C 127.68 1409  129 1410.32  129 1412  C 129 1413.68  127.68 1415  126 1415  " fill-rule="nonzero" fill="#797979" stroke="none" />
</svg>