<?xml version="1.0" encoding="utf-8"?>
<svg version="1.1" xmlns:xlink="http://www.w3.org/1999/xlink" width="12px" height="12px" viewBox="53 2197  12 12" xmlns="http://www.w3.org/2000/svg">
  <path d="M 59 2197  C 62.36 2197  65 2199.64  65 2203  C 65 2206.36  62.36 2209  59 2209  C 55.64 2209  53 2206.36  53 2203  C 53 2199.64  55.64 2197  59 2197  Z " fill-rule="nonzero" fill="#f0f0f0" stroke="none" />
  <path d="M 59 2197.5  C 62.08 2197.5  64.5 2199.92  64.5 2203  C 64.5 2206.08  62.08 2208.5  59 2208.5  C 55.92 2208.5  53.5 2206.08  53.5 2203  C 53.5 2199.92  55.92 2197.5  59 2197.5  Z " stroke-width="1" stroke="#797979" fill="none" />
  <path d="M 59 2206  C 57.32 2206  56 2204.68  56 2203  C 56 2201.32  57.32 2200  59 2200  C 60.68 2200  62 2201.32  62 2203  C 62 2204.68  60.68 2206  59 2206  " fill-rule="nonzero" fill="#797979" stroke="none" />
</svg>