<?xml version="1.0" encoding="utf-8"?>
<svg version="1.1" xmlns:xlink="http://www.w3.org/1999/xlink" width="12px" height="12px" viewBox="53 2225  12 12" xmlns="http://www.w3.org/2000/svg">
  <path d="M 59 2225  C 62.36 2225  65 2227.64  65 2231  C 65 2234.36  62.36 2237  59 2237  C 55.64 2237  53 2234.36  53 2231  C 53 2227.64  55.64 2225  59 2225  Z " fill-rule="nonzero" fill="#ffffff" stroke="none" />
  <path d="M 59 2225.5  C 62.08 2225.5  64.5 2227.92  64.5 2231  C 64.5 2234.08  62.08 2236.5  59 2236.5  C 55.92 2236.5  53.5 2234.08  53.5 2231  C 53.5 2227.92  55.92 2225.5  59 2225.5  Z " stroke-width="1" stroke="#797979" fill="none" />
  <path d="M 59 2234  C 57.32 2234  56 2232.68  56 2231  C 56 2229.32  57.32 2228  59 2228  C 60.68 2228  62 2229.32  62 2231  C 62 2232.68  60.68 2234  59 2234  " fill-rule="nonzero" fill="#797979" stroke="none" />
</svg>