<?xml version="1.0" encoding="utf-8"?>
<svg version="1.1" xmlns:xlink="http://www.w3.org/1999/xlink" width="19px" height="18px" xmlns="http://www.w3.org/2000/svg">
  <defs>
    <mask fill="white" id="clip196">
      <path d="M 0 17  L 0 0  L 18 0  L 18 17  L 8.27586206896558 17  L 0 17  Z " fill-rule="evenodd" />
    </mask>
  </defs>
  <g transform="matrix(1 0 0 1 -372 -12 )">
    <path d="M 0 17  L 0 0  L 18 0  L 18 17  L 8.27586206896558 17  L 0 17  Z M 0.384889316055819 16.6364934237251  L 17.6151106839442 0.363506576274915  L 11.3668222984755 6.26466782921756  L 6.74962029588801 10.6253586094392  L 0.384889316055819 16.6364934237251  Z " fill-rule="nonzero" fill="#f2f2f2" stroke="none" transform="matrix(1 0 0 1 372 12 )" />
    <path d="M 0 17  L 0 0  L 18 0  L 18 17  L 8.27586206896558 17  L 0 17  Z " stroke-width="2" stroke="#797979" fill="none" transform="matrix(1 0 0 1 372 12 )" mask="url(#clip196)" />
    <path d="M 17.6151106839442 0.363506576274915  L 11.3668222984755 6.26466782921756  L 6.74962029588801 10.6253586094392  L 0.384889316055819 16.6364934237251  M 0.384889316055819 0.363506576274915  L 17.6151106839442 16.6364934237251  " stroke-width="1" stroke="#797979" fill="none" transform="matrix(1 0 0 1 372 12 )" mask="url(#clip196)" />
  </g>
</svg>