<?xml version="1.0" encoding="utf-8"?>
<svg version="1.1" xmlns:xlink="http://www.w3.org/1999/xlink" width="20px" height="19px" xmlns="http://www.w3.org/2000/svg">
  <defs>
    <mask fill="white" id="clip197">
      <path d="M 0 18  L 0 0  L 19 0  L 19 18  L 8.73563218390811 18  L 0 18  Z " fill-rule="evenodd" />
    </mask>
  </defs>
  <g transform="matrix(1 0 0 1 -176 -12 )">
    <path d="M 0 18  L 0 0  L 19 0  L 19 18  L 8.73563218390811 18  L 0 18  Z M 0.406272055836698 17.6151106839442  L 18.5937279441633 0.384889316055792  L 11.9983124261686 6.63317770152447  L 7.12459920121512 11.2503797041121  L 0.406272055836698 17.6151106839442  Z " fill-rule="nonzero" fill="#f2f2f2" stroke="none" transform="matrix(1 0 0 1 176 12 )" />
    <path d="M 0 18  L 0 0  L 19 0  L 19 18  L 8.73563218390811 18  L 0 18  Z " stroke-width="2" stroke="#797979" fill="none" transform="matrix(1 0 0 1 176 12 )" mask="url(#clip197)" />
    <path d="M 18.5937279441633 0.384889316055792  L 11.9983124261686 6.63317770152447  L 7.12459920121512 11.2503797041121  L 0.406272055836698 17.6151106839442  M 0.406272055836698 0.384889316055792  L 18.5937279441633 17.6151106839442  " stroke-width="1" stroke="#797979" fill="none" transform="matrix(1 0 0 1 176 12 )" mask="url(#clip197)" />
  </g>
</svg>