<?xml version="1.0" encoding="utf-8"?>
<svg version="1.1" xmlns:xlink="http://www.w3.org/1999/xlink" width="16px" height="16px" viewBox="15 55  16 16" xmlns="http://www.w3.org/2000/svg">
  <path d="M 23 55  C 27.48 55  31 58.52  31 63  C 31 67.48  27.48 71  23 71  C 18.52 71  15 67.48  15 63  C 15 58.52  18.52 55  23 55  Z " fill-rule="nonzero" fill="#f0f0f0" stroke="none" />
  <path d="M 23 55.5  C 27.2 55.5  30.5 58.8  30.5 63  C 30.5 67.2  27.2 70.5  23 70.5  C 18.8 70.5  15.5 67.2  15.5 63  C 15.5 58.8  18.8 55.5  23 55.5  Z " stroke-width="1" stroke="#797979" fill="none" />
  <path d="M 23 67  C 20.76 67  19 65.24  19 63  C 19 60.76  20.76 59  23 59  C 25.24 59  27 60.76  27 63  C 27 65.24  25.24 67  23 67  " fill-rule="nonzero" fill="#797979" stroke="none" />
</svg>