<?xml version="1.0" encoding="utf-8"?>
<svg version="1.1" xmlns:xlink="http://www.w3.org/1999/xlink" width="16px" height="16px" viewBox="15 117  16 16" xmlns="http://www.w3.org/2000/svg">
  <path d="M 23 117  C 27.48 117  31 120.52  31 125  C 31 129.48  27.48 133  23 133  C 18.52 133  15 129.48  15 125  C 15 120.52  18.52 117  23 117  Z " fill-rule="nonzero" fill="#f0f0f0" stroke="none" />
  <path d="M 23 117.5  C 27.2 117.5  30.5 120.8  30.5 125  C 30.5 129.2  27.2 132.5  23 132.5  C 18.8 132.5  15.5 129.2  15.5 125  C 15.5 120.8  18.8 117.5  23 117.5  Z " stroke-width="1" stroke="#797979" fill="none" />
  <path d="M 23 129  C 20.76 129  19 127.24  19 125  C 19 122.76  20.76 121  23 121  C 25.24 121  27 122.76  27 125  C 27 127.24  25.24 129  23 129  " fill-rule="nonzero" fill="#797979" stroke="none" />
</svg>