<?xml version="1.0" encoding="utf-8"?>
<svg version="1.1" xmlns:xlink="http://www.w3.org/1999/xlink" width="12px" height="12px" viewBox="117 346  12 12" xmlns="http://www.w3.org/2000/svg">
  <path d="M 123 346  C 126.36 346  129 348.64  129 352  C 129 355.36  126.36 358  123 358  C 119.64 358  117 355.36  117 352  C 117 348.64  119.64 346  123 346  Z " fill-rule="nonzero" fill="#f0f0f0" stroke="none" />
  <path d="M 123 346.5  C 126.08 346.5  128.5 348.92  128.5 352  C 128.5 355.08  126.08 357.5  123 357.5  C 119.92 357.5  117.5 355.08  117.5 352  C 117.5 348.92  119.92 346.5  123 346.5  Z " stroke-width="1" stroke="#797979" fill="none" />
  <path d="M 123 355  C 121.32 355  120 353.68  120 352  C 120 350.32  121.32 349  123 349  C 124.68 349  126 350.32  126 352  C 126 353.68  124.68 355  123 355  " fill-rule="nonzero" fill="#797979" stroke="none" />
</svg>