<?xml version="1.0" encoding="utf-8"?>
<svg version="1.1" xmlns:xlink="http://www.w3.org/1999/xlink" width="12px" height="12px" viewBox="50 410  12 12" xmlns="http://www.w3.org/2000/svg">
  <path d="M 56 410  C 59.36 410  62 412.64  62 416  C 62 419.36  59.36 422  56 422  C 52.64 422  50 419.36  50 416  C 50 412.64  52.64 410  56 410  Z " fill-rule="nonzero" fill="#f0f0f0" stroke="none" />
  <path d="M 56 410.5  C 59.08 410.5  61.5 412.92  61.5 416  C 61.5 419.08  59.08 421.5  56 421.5  C 52.92 421.5  50.5 419.08  50.5 416  C 50.5 412.92  52.92 410.5  56 410.5  Z " stroke-width="1" stroke="#797979" fill="none" />
  <path d="M 56 419  C 54.32 419  53 417.68  53 416  C 53 414.32  54.32 413  56 413  C 57.68 413  59 414.32  59 416  C 59 417.68  57.68 419  56 419  " fill-rule="nonzero" fill="#797979" stroke="none" />
</svg>