<?xml version="1.0" encoding="utf-8"?>
<svg version="1.1" xmlns:xlink="http://www.w3.org/1999/xlink" width="12px" height="12px" viewBox="117 410  12 12" xmlns="http://www.w3.org/2000/svg">
  <path d="M 123 410  C 126.36 410  129 412.64  129 416  C 129 419.36  126.36 422  123 422  C 119.64 422  117 419.36  117 416  C 117 412.64  119.64 410  123 410  Z " fill-rule="nonzero" fill="#f0f0f0" stroke="none" />
  <path d="M 123 410.5  C 126.08 410.5  128.5 412.92  128.5 416  C 128.5 419.08  126.08 421.5  123 421.5  C 119.92 421.5  117.5 419.08  117.5 416  C 117.5 412.92  119.92 410.5  123 410.5  Z " stroke-width="1" stroke="#797979" fill="none" />
  <path d="M 123 419  C 121.32 419  120 417.68  120 416  C 120 414.32  121.32 413  123 413  C 124.68 413  126 414.32  126 416  C 126 417.68  124.68 419  123 419  " fill-rule="nonzero" fill="#797979" stroke="none" />
</svg>