<?xml version="1.0" encoding="utf-8"?>
<svg version="1.1" xmlns:xlink="http://www.w3.org/1999/xlink" width="12px" height="12px" viewBox="50 798  12 12" xmlns="http://www.w3.org/2000/svg">
  <path d="M 56 798  C 59.36 798  62 800.64  62 804  C 62 807.36  59.36 810  56 810  C 52.64 810  50 807.36  50 804  C 50 800.64  52.64 798  56 798  Z " fill-rule="nonzero" fill="#ffffff" stroke="none" />
  <path d="M 56 798.5  C 59.08 798.5  61.5 800.92  61.5 804  C 61.5 807.08  59.08 809.5  56 809.5  C 52.92 809.5  50.5 807.08  50.5 804  C 50.5 800.92  52.92 798.5  56 798.5  Z " stroke-width="1" stroke="#797979" fill="none" />
  <path d="M 56 807  C 54.32 807  53 805.68  53 804  C 53 802.32  54.32 801  56 801  C 57.68 801  59 802.32  59 804  C 59 805.68  57.68 807  56 807  " fill-rule="nonzero" fill="#797979" stroke="none" />
</svg>