<?xml version="1.0" encoding="utf-8"?>
<svg version="1.1" xmlns:xlink="http://www.w3.org/1999/xlink" width="12px" height="12px" viewBox="50 827  12 12" xmlns="http://www.w3.org/2000/svg">
  <path d="M 56 827  C 59.36 827  62 829.64  62 833  C 62 836.36  59.36 839  56 839  C 52.64 839  50 836.36  50 833  C 50 829.64  52.64 827  56 827  Z " fill-rule="nonzero" fill="#f0f0f0" stroke="none" />
  <path d="M 56 827.5  C 59.08 827.5  61.5 829.92  61.5 833  C 61.5 836.08  59.08 838.5  56 838.5  C 52.92 838.5  50.5 836.08  50.5 833  C 50.5 829.92  52.92 827.5  56 827.5  Z " stroke-width="1" stroke="#797979" fill="none" />
  <path d="M 56 836  C 54.32 836  53 834.68  53 833  C 53 831.32  54.32 830  56 830  C 57.68 830  59 831.32  59 833  C 59 834.68  57.68 836  56 836  " fill-rule="nonzero" fill="#797979" stroke="none" />
</svg>