<?xml version="1.0" encoding="utf-8"?>
<svg version="1.1" xmlns:xlink="http://www.w3.org/1999/xlink" width="12px" height="12px" viewBox="50 990  12 12" xmlns="http://www.w3.org/2000/svg">
  <path d="M 56 990  C 59.36 990  62 992.64  62 996  C 62 999.36  59.36 1002  56 1002  C 52.64 1002  50 999.36  50 996  C 50 992.64  52.64 990  56 990  Z " fill-rule="nonzero" fill="#ffffff" stroke="none" />
  <path d="M 56 990.5  C 59.08 990.5  61.5 992.92  61.5 996  C 61.5 999.08  59.08 1001.5  56 1001.5  C 52.92 1001.5  50.5 999.08  50.5 996  C 50.5 992.92  52.92 990.5  56 990.5  Z " stroke-width="1" stroke="#797979" fill="none" />
  <path d="M 56 999  C 54.32 999  53 997.68  53 996  C 53 994.32  54.32 993  56 993  C 57.68 993  59 994.32  59 996  C 59 997.68  57.68 999  56 999  " fill-rule="nonzero" fill="#797979" stroke="none" />
</svg>