<?xml version="1.0" encoding="utf-8"?>
<svg version="1.1" xmlns:xlink="http://www.w3.org/1999/xlink" width="12px" height="12px" viewBox="50 1317  12 12" xmlns="http://www.w3.org/2000/svg">
  <path d="M 56 1317  C 59.36 1317  62 1319.64  62 1323  C 62 1326.36  59.36 1329  56 1329  C 52.64 1329  50 1326.36  50 1323  C 50 1319.64  52.64 1317  56 1317  Z " fill-rule="nonzero" fill="#ffffff" stroke="none" />
  <path d="M 56 1317.5  C 59.08 1317.5  61.5 1319.92  61.5 1323  C 61.5 1326.08  59.08 1328.5  56 1328.5  C 52.92 1328.5  50.5 1326.08  50.5 1323  C 50.5 1319.92  52.92 1317.5  56 1317.5  Z " stroke-width="1" stroke="#797979" fill="none" />
  <path d="M 56 1326  C 54.32 1326  53 1324.68  53 1323  C 53 1321.32  54.32 1320  56 1320  C 57.68 1320  59 1321.32  59 1323  C 59 1324.68  57.68 1326  56 1326  " fill-rule="nonzero" fill="#797979" stroke="none" />
</svg>