<?xml version="1.0" encoding="utf-8"?>
<svg version="1.1" xmlns:xlink="http://www.w3.org/1999/xlink" width="12px" height="12px" viewBox="50 1405  12 12" xmlns="http://www.w3.org/2000/svg">
  <path d="M 56 1405  C 59.36 1405  62 1407.64  62 1411  C 62 1414.36  59.36 1417  56 1417  C 52.64 1417  50 1414.36  50 1411  C 50 1407.64  52.64 1405  56 1405  Z " fill-rule="nonzero" fill="#f0f0f0" stroke="none" />
  <path d="M 56 1405.5  C 59.08 1405.5  61.5 1407.92  61.5 1411  C 61.5 1414.08  59.08 1416.5  56 1416.5  C 52.92 1416.5  50.5 1414.08  50.5 1411  C 50.5 1407.92  52.92 1405.5  56 1405.5  Z " stroke-width="1" stroke="#797979" fill="none" />
  <path d="M 56 1414  C 54.32 1414  53 1412.68  53 1411  C 53 1409.32  54.32 1408  56 1408  C 57.68 1408  59 1409.32  59 1411  C 59 1412.68  57.68 1414  56 1414  " fill-rule="nonzero" fill="#797979" stroke="none" />
</svg>