<?xml version="1.0" encoding="utf-8"?>
<svg version="1.1" xmlns:xlink="http://www.w3.org/1999/xlink" width="12px" height="12px" viewBox="117 1405  12 12" xmlns="http://www.w3.org/2000/svg">
  <path d="M 123 1405  C 126.36 1405  129 1407.64  129 1411  C 129 1414.36  126.36 1417  123 1417  C 119.64 1417  117 1414.36  117 1411  C 117 1407.64  119.64 1405  123 1405  Z " fill-rule="nonzero" fill="#ffffff" stroke="none" />
  <path d="M 123 1405.5  C 126.08 1405.5  128.5 1407.92  128.5 1411  C 128.5 1414.08  126.08 1416.5  123 1416.5  C 119.92 1416.5  117.5 1414.08  117.5 1411  C 117.5 1407.92  119.92 1405.5  123 1405.5  Z " stroke-width="1" stroke="#797979" fill="none" />
  <path d="M 123 1414  C 121.32 1414  120 1412.68  120 1411  C 120 1409.32  121.32 1408  123 1408  C 124.68 1408  126 1409.32  126 1411  C 126 1412.68  124.68 1414  123 1414  " fill-rule="nonzero" fill="#797979" stroke="none" />
</svg>