<?xml version="1.0" encoding="utf-8"?>
<svg version="1.1" xmlns:xlink="http://www.w3.org/1999/xlink" width="12px" height="12px" viewBox="50 1285  12 12" xmlns="http://www.w3.org/2000/svg">
  <path d="M 56 1285  C 59.36 1285  62 1287.64  62 1291  C 62 1294.36  59.36 1297  56 1297  C 52.64 1297  50 1294.36  50 1291  C 50 1287.64  52.64 1285  56 1285  Z " fill-rule="nonzero" fill="#ffffff" stroke="none" />
  <path d="M 56 1285.5  C 59.08 1285.5  61.5 1287.92  61.5 1291  C 61.5 1294.08  59.08 1296.5  56 1296.5  C 52.92 1296.5  50.5 1294.08  50.5 1291  C 50.5 1287.92  52.92 1285.5  56 1285.5  Z " stroke-width="1" stroke="#797979" fill="none" />
  <path d="M 56 1294  C 54.32 1294  53 1292.68  53 1291  C 53 1289.32  54.32 1288  56 1288  C 57.68 1288  59 1289.32  59 1291  C 59 1292.68  57.68 1294  56 1294  " fill-rule="nonzero" fill="#797979" stroke="none" />
</svg>