<?xml version="1.0" encoding="utf-8"?>
<svg version="1.1" xmlns:xlink="http://www.w3.org/1999/xlink" width="12px" height="12px" viewBox="50 1470  12 12" xmlns="http://www.w3.org/2000/svg">
  <path d="M 56 1470  C 59.36 1470  62 1472.64  62 1476  C 62 1479.36  59.36 1482  56 1482  C 52.64 1482  50 1479.36  50 1476  C 50 1472.64  52.64 1470  56 1470  Z " fill-rule="nonzero" fill="#f0f0f0" stroke="none" />
  <path d="M 56 1470.5  C 59.08 1470.5  61.5 1472.92  61.5 1476  C 61.5 1479.08  59.08 1481.5  56 1481.5  C 52.92 1481.5  50.5 1479.08  50.5 1476  C 50.5 1472.92  52.92 1470.5  56 1470.5  Z " stroke-width="1" stroke="#797979" fill="none" />
  <path d="M 56 1479  C 54.32 1479  53 1477.68  53 1476  C 53 1474.32  54.32 1473  56 1473  C 57.68 1473  59 1474.32  59 1476  C 59 1477.68  57.68 1479  56 1479  " fill-rule="nonzero" fill="#797979" stroke="none" />
</svg>