<?xml version="1.0" encoding="utf-8"?>
<svg version="1.1" xmlns:xlink="http://www.w3.org/1999/xlink" width="12px" height="12px" viewBox="50 1498  12 12" xmlns="http://www.w3.org/2000/svg">
  <path d="M 56 1498  C 59.36 1498  62 1500.64  62 1504  C 62 1507.36  59.36 1510  56 1510  C 52.64 1510  50 1507.36  50 1504  C 50 1500.64  52.64 1498  56 1498  Z " fill-rule="nonzero" fill="#ffffff" stroke="none" />
  <path d="M 56 1498.5  C 59.08 1498.5  61.5 1500.92  61.5 1504  C 61.5 1507.08  59.08 1509.5  56 1509.5  C 52.92 1509.5  50.5 1507.08  50.5 1504  C 50.5 1500.92  52.92 1498.5  56 1498.5  Z " stroke-width="1" stroke="#797979" fill="none" />
  <path d="M 56 1507  C 54.32 1507  53 1505.68  53 1504  C 53 1502.32  54.32 1501  56 1501  C 57.68 1501  59 1502.32  59 1504  C 59 1505.68  57.68 1507  56 1507  " fill-rule="nonzero" fill="#797979" stroke="none" />
</svg>