<?xml version="1.0" encoding="utf-8"?>
<svg version="1.1" xmlns:xlink="http://www.w3.org/1999/xlink" width="12px" height="12px" viewBox="50 2224  12 12" xmlns="http://www.w3.org/2000/svg">
  <path d="M 56 2224  C 59.36 2224  62 2226.64  62 2230  C 62 2233.36  59.36 2236  56 2236  C 52.64 2236  50 2233.36  50 2230  C 50 2226.64  52.64 2224  56 2224  Z " fill-rule="nonzero" fill="#ffffff" stroke="none" />
  <path d="M 56 2224.5  C 59.08 2224.5  61.5 2226.92  61.5 2230  C 61.5 2233.08  59.08 2235.5  56 2235.5  C 52.92 2235.5  50.5 2233.08  50.5 2230  C 50.5 2226.92  52.92 2224.5  56 2224.5  Z " stroke-width="1" stroke="#797979" fill="none" />
  <path d="M 56 2233  C 54.32 2233  53 2231.68  53 2230  C 53 2228.32  54.32 2227  56 2227  C 57.68 2227  59 2228.32  59 2230  C 59 2231.68  57.68 2233  56 2233  " fill-rule="nonzero" fill="#797979" stroke="none" />
</svg>