<?xml version="1.0" encoding="utf-8"?>
<svg version="1.1" xmlns:xlink="http://www.w3.org/1999/xlink" width="12px" height="12px" viewBox="50 2196  12 12" xmlns="http://www.w3.org/2000/svg">
  <path d="M 56 2196  C 59.36 2196  62 2198.64  62 2202  C 62 2205.36  59.36 2208  56 2208  C 52.64 2208  50 2205.36  50 2202  C 50 2198.64  52.64 2196  56 2196  Z " fill-rule="nonzero" fill="#ffffff" stroke="none" />
  <path d="M 56 2196.5  C 59.08 2196.5  61.5 2198.92  61.5 2202  C 61.5 2205.08  59.08 2207.5  56 2207.5  C 52.92 2207.5  50.5 2205.08  50.5 2202  C 50.5 2198.92  52.92 2196.5  56 2196.5  Z " stroke-width="1" stroke="#797979" fill="none" />
  <path d="M 56 2205  C 54.32 2205  53 2203.68  53 2202  C 53 2200.32  54.32 2199  56 2199  C 57.68 2199  59 2200.32  59 2202  C 59 2203.68  57.68 2205  56 2205  " fill-rule="nonzero" fill="#797979" stroke="none" />
</svg>